<svg width="102" height="30" viewBox="0 0 102 30" fill="none" xmlns="http://www.w3.org/2000/svg">
<path d="M4.50319 22.1242C3.65679 22.1242 3.00359 21.9126 2.54359 21.4894C2.08359 21.057 1.85359 20.4084 1.85359 19.5436V16.3696H0.556391V14.686H1.85359V13.1266L3.82699 12.9196V14.686H5.59339V16.3696H3.82699V19.3228C3.82699 19.7 3.91899 19.9714 4.10299 20.137C4.29619 20.2934 4.59059 20.3716 4.98619 20.3716C5.23459 20.3716 5.46919 20.3532 5.68999 20.3164V22C5.27599 22.0828 4.88039 22.1242 4.50319 22.1242ZM9.71754 22.1518C8.97234 22.1518 8.30074 21.9908 7.70274 21.6688C7.10474 21.3376 6.63554 20.8822 6.29514 20.3026C5.96394 19.723 5.79834 19.0698 5.79834 18.343C5.79834 17.6162 5.96394 16.963 6.29514 16.3834C6.63554 15.8038 7.10474 15.353 7.70274 15.031C8.30074 14.6998 8.97234 14.5342 9.71754 14.5342C10.4627 14.5342 11.1343 14.6998 11.7323 15.031C12.3303 15.353 12.7949 15.8038 13.1261 16.3834C13.4665 16.963 13.6367 17.6162 13.6367 18.343C13.6367 19.0698 13.4665 19.723 13.1261 20.3026C12.7949 20.8822 12.3303 21.3376 11.7323 21.6688C11.1343 21.9908 10.4627 22.1518 9.71754 22.1518ZM7.79934 18.343C7.79934 18.9042 7.97874 19.3734 8.33754 19.7506C8.70554 20.1186 9.16554 20.3026 9.71754 20.3026C10.2695 20.3026 10.7249 20.1186 11.0837 19.7506C11.4517 19.3734 11.6357 18.9042 11.6357 18.343C11.6357 17.7818 11.4517 17.3172 11.0837 16.9492C10.7249 16.572 10.2695 16.3834 9.71754 16.3834C9.16554 16.3834 8.70554 16.572 8.33754 16.9492C7.97874 17.3172 7.79934 17.7818 7.79934 18.343ZM18.503 22.1518C17.6658 22.1518 16.9298 21.908 16.295 21.4204V24.2356H14.3216V14.686H16.0328L16.1018 15.4174C16.4146 15.1322 16.7734 14.916 17.1782 14.7688C17.5922 14.6124 18.0292 14.5342 18.4892 14.5342C19.1884 14.5342 19.814 14.6998 20.366 15.031C20.9272 15.353 21.3642 15.8038 21.677 16.3834C21.9898 16.963 22.1462 17.6162 22.1462 18.343C22.1462 19.0514 21.9944 19.6954 21.6908 20.275C21.3872 20.8546 20.9548 21.3146 20.3936 21.655C19.8416 21.9862 19.2114 22.1518 18.503 22.1518ZM16.2812 18.343C16.2812 18.9134 16.4606 19.3826 16.8194 19.7506C17.1874 20.1186 17.6566 20.3026 18.227 20.3026C18.7882 20.3026 19.2482 20.1186 19.607 19.7506C19.975 19.3826 20.159 18.9134 20.159 18.343C20.159 17.7726 19.975 17.3034 19.607 16.9354C19.2482 16.5674 18.7882 16.3834 18.227 16.3834C17.6566 16.3834 17.1874 16.5674 16.8194 16.9354C16.4606 17.3034 16.2812 17.7726 16.2812 18.343ZM25.4689 22.138C24.5397 22.138 23.7899 21.9218 23.2195 21.4894C22.6491 21.0478 22.3455 20.4498 22.3087 19.6954H24.2821C24.3005 19.953 24.4155 20.1508 24.6271 20.2888C24.8479 20.4268 25.1423 20.4958 25.5103 20.4958C25.8599 20.4958 26.1405 20.436 26.3521 20.3164C26.5637 20.1968 26.6695 20.0358 26.6695 19.8334C26.6695 19.631 26.5683 19.4792 26.3659 19.378C26.1635 19.2768 25.7725 19.1848 25.1929 19.102C24.2269 18.9732 23.5185 18.7294 23.0677 18.3706C22.6169 18.0026 22.3915 17.4966 22.3915 16.8526C22.3915 16.1442 22.6721 15.583 23.2333 15.169C23.8037 14.7458 24.5443 14.5342 25.4551 14.5342C26.0163 14.5342 26.5223 14.6354 26.9731 14.8378C27.4239 15.031 27.7781 15.307 28.0357 15.6658C28.3025 16.0154 28.4497 16.4202 28.4773 16.8802H26.5729C26.5361 16.6502 26.4211 16.4754 26.2279 16.3558C26.0347 16.2362 25.7679 16.1764 25.4275 16.1764C25.0871 16.1764 24.8249 16.2316 24.6409 16.342C24.4661 16.4432 24.3787 16.595 24.3787 16.7974C24.3787 16.9998 24.4891 17.1608 24.7099 17.2804C24.9307 17.3908 25.3217 17.4828 25.8829 17.5564C26.8029 17.6668 27.4929 17.906 27.9529 18.274C28.4221 18.6328 28.6567 19.1388 28.6567 19.792C28.6567 20.5096 28.3623 21.08 27.7735 21.5032C27.1847 21.9264 26.4165 22.138 25.4689 22.138ZM33.4501 22.1518C32.6129 22.1518 31.8769 21.908 31.2421 21.4204V24.2356H29.2687V14.686H30.9799L31.0489 15.4174C31.3617 15.1322 31.7205 14.916 32.1253 14.7688C32.5393 14.6124 32.9763 14.5342 33.4363 14.5342C34.1355 14.5342 34.7611 14.6998 35.3131 15.031C35.8743 15.353 36.3113 15.8038 36.6241 16.3834C36.9369 16.963 37.0933 17.6162 37.0933 18.343C37.0933 19.0514 36.9415 19.6954 36.6379 20.275C36.3343 20.8546 35.9019 21.3146 35.3407 21.655C34.7887 21.9862 34.1585 22.1518 33.4501 22.1518ZM31.2283 18.343C31.2283 18.9134 31.4077 19.3826 31.7665 19.7506C32.1345 20.1186 32.6037 20.3026 33.1741 20.3026C33.7353 20.3026 34.1953 20.1186 34.5541 19.7506C34.9221 19.3826 35.1061 18.9134 35.1061 18.343C35.1061 17.7726 34.9221 17.3034 34.5541 16.9354C34.1953 16.5674 33.7353 16.3834 33.1741 16.3834C32.6037 16.3834 32.1345 16.5674 31.7665 16.9354C31.4077 17.3034 31.2283 17.7726 31.2283 18.343ZM41.1061 22.1518C40.3701 22.1518 39.7077 21.9908 39.1189 21.6688C38.5393 21.3376 38.0839 20.8822 37.7527 20.3026C37.4215 19.723 37.2559 19.0698 37.2559 18.343C37.2559 17.6162 37.4215 16.963 37.7527 16.3834C38.0839 15.8038 38.5393 15.353 39.1189 15.031C39.7077 14.6998 40.3701 14.5342 41.1061 14.5342C41.8513 14.5342 42.5137 14.6998 43.0933 15.031C43.6729 15.353 44.1237 15.8038 44.4457 16.3834C44.7677 16.9538 44.9287 17.607 44.9287 18.343C44.9287 18.5546 44.9149 18.7708 44.8873 18.9916H39.2707C39.3811 19.424 39.5973 19.7598 39.9193 19.999C40.2413 20.2382 40.6369 20.3578 41.1061 20.3578C41.4189 20.3578 41.7041 20.3026 41.9617 20.1922C42.2285 20.0726 42.4355 19.9162 42.5827 19.723H44.7217C44.4641 20.4682 44.0087 21.0616 43.3555 21.5032C42.7023 21.9356 41.9525 22.1518 41.1061 22.1518ZM42.9553 17.653C42.8449 17.239 42.6287 16.917 42.3067 16.687C41.9847 16.4478 41.5845 16.3282 41.1061 16.3282C40.6461 16.3282 40.2551 16.4478 39.9331 16.687C39.6203 16.917 39.4041 17.239 39.2845 17.653H42.9553ZM48.9165 22.1518C48.1805 22.1518 47.5181 21.9908 46.9293 21.6688C46.3497 21.3376 45.8943 20.8822 45.5631 20.3026C45.2319 19.723 45.0663 19.0698 45.0663 18.343C45.0663 17.6162 45.2319 16.963 45.5631 16.3834C45.8943 15.8038 46.3497 15.353 46.9293 15.031C47.5181 14.6998 48.1805 14.5342 48.9165 14.5342C49.6618 14.5342 50.3241 14.6998 50.9037 15.031C51.4833 15.353 51.9341 15.8038 52.2562 16.3834C52.5781 16.9538 52.7391 17.607 52.7391 18.343C52.7391 18.5546 52.7253 18.7708 52.6978 18.9916H47.0811C47.1915 19.424 47.4077 19.7598 47.7297 19.999C48.0517 20.2382 48.4473 20.3578 48.9165 20.3578C49.2293 20.3578 49.5145 20.3026 49.7721 20.1922C50.0389 20.0726 50.2459 19.9162 50.3931 19.723H52.5321C52.2745 20.4682 51.8191 21.0616 51.1659 21.5032C50.5127 21.9356 49.7629 22.1518 48.9165 22.1518ZM50.7658 17.653C50.6553 17.239 50.4391 16.917 50.1171 16.687C49.7951 16.4478 49.3949 16.3282 48.9165 16.3282C48.4565 16.3282 48.0655 16.4478 47.7435 16.687C47.4307 16.917 47.2145 17.239 47.0949 17.653H50.7658ZM56.52 22.1518C55.8116 22.1518 55.1768 21.9862 54.6156 21.655C54.0636 21.3146 53.6358 20.8546 53.3322 20.275C53.0286 19.6954 52.8768 19.0514 52.8768 18.343C52.8768 17.6162 53.0332 16.963 53.346 16.3834C53.6588 15.8038 54.0912 15.353 54.6432 15.031C55.1952 14.6998 55.8208 14.5342 56.52 14.5342C57.3572 14.5342 58.0932 14.778 58.728 15.2656V12.34H60.7014V22H58.9902L58.9212 21.2686C58.5992 21.5538 58.2312 21.7746 57.8172 21.931C57.4124 22.0782 56.98 22.1518 56.52 22.1518ZM54.864 18.343C54.864 18.9134 55.0434 19.3826 55.4022 19.7506C55.7702 20.1186 56.2348 20.3026 56.796 20.3026C57.3664 20.3026 57.831 20.1186 58.1898 19.7506C58.5578 19.3826 58.7418 18.9134 58.7418 18.343C58.7418 17.7726 58.5578 17.3034 58.1898 16.9354C57.831 16.5674 57.3664 16.3834 56.796 16.3834C56.2348 16.3834 55.7702 16.5674 55.4022 16.9354C55.0434 17.3034 54.864 17.7726 54.864 18.343Z" fill="#4D4D4D"/>
<ellipse cx="84" cy="14.7167" rx="18" ry="14.7167" fill="url(#paint0_linear_1_81)"/>
<defs>
<linearGradient id="paint0_linear_1_81" x1="91.7838" y1="1.63519" x2="82.1222" y2="30.5924" gradientUnits="userSpaceOnUse">
<stop stop-color="#FFA501"/>
<stop offset="0.716391" stop-color="#052F82"/>
</linearGradient>
</defs>
</svg>
